<svg aria-hidden="true" style="position: absolute; width: 0; height: 0; overflow: hidden;" version="1.1" xmlns="http://www.w3.org/2000/svg" xmlns:xlink="http://www.w3.org/1999/xlink">
<defs>
<symbol id="button-vector-close" viewBox="0 0 34 32">
<path fill="#fff" style="fill: var(--color1, #fff)" d="M27.943 9.081l-1.943-1.97-7.703 7.808-7.703-7.808-1.943 1.97 7.703 7.808-7.703 7.808 1.943 1.97 7.703-7.808 7.703 7.808 1.943-1.97-7.703-7.808 7.703-7.808z"></path>
</symbol>
<symbol id="button-vector" viewBox="0 0 22 32">
<path fill="none" stroke="#d41443" style="stroke: var(--color2, #d41443)" stroke-linejoin="round" stroke-linecap="round" stroke-miterlimit="4" stroke-width="6.4" d="M3.47 3.2l13.7 12.8-13.7 12.8"></path>
</symbol>
<symbol id="input-name-icon" viewBox="0 0 28 32">
<path fill="#d41443" style="fill: var(--color1, #d41443)" d="M13.982 16.134c2.482 0 4.491-2.267 4.491-5.063 0-2.799-2.009-5.064-4.491-5.064s-4.491 2.265-4.491 5.063 2.009 5.063 4.491 5.063zM13.982 18.666c-2.997 0-8.982 1.696-8.982 5.063v1.266c0 0.697 0.505 1.266 1.123 1.266h15.718c0.618 0 1.123-0.569 1.123-1.266v-1.266c0-3.366-5.985-5.063-8.982-5.063z"></path>
</symbol>
<symbol id="input-phone-icon" viewBox="0 0 28 32">
<path fill="#d41443" style="fill: var(--color1, #d41443)" d="M21.459 19.543l-2.75-0.355c-0.072-0.009-0.156-0.014-0.241-0.014-0.615 0-1.165 0.275-1.535 0.708l-0.002 0.003-1.993 2.248c-3.067-1.76-5.579-4.581-7.14-8.050l2.005-2.259c0.466-0.525 0.693-1.258 0.617-2.003l-0.314-3.078c-0.129-1.234-1.050-2.162-2.156-2.162h-1.874c-1.224 0-2.242 1.149-2.168 2.529 0.576 10.431 7.975 18.762 17.217 19.408 1.224 0.087 2.242-1.062 2.242-2.441v-2.114c0.012-1.234-0.812-2.272-1.906-2.418z"></path>
</symbol>
<symbol id="input-mail-icon" viewBox="0 0 28 32">
<path fill="#d41443" style="fill: var(--color1, #d41443)" d="M22.75 5.76h-17.224c-1.183 0-2.142 1.135-2.142 2.52l-0.010 15.123c0 1.386 0.969 2.521 2.153 2.521h17.222c1.184 0 2.153-1.135 2.153-2.521v-15.123c0-1.385-0.969-2.52-2.153-2.52zM22.319 11.115l-7.61 5.572c-0.157 0.118-0.355 0.189-0.57 0.189s-0.413-0.071-0.573-0.191l0.002 0.002-7.612-5.572c-0.263-0.209-0.431-0.529-0.431-0.888 0-0.007 0-0.013 0-0.019v0.001c0-0.844 0.786-1.349 1.4-0.908l7.213 5.281 7.212-5.281c0.614-0.441 1.4 0.063 1.4 0.908 0 0.005 0 0.012 0 0.018 0 0.359-0.167 0.679-0.428 0.886l-0.002 0.002z"></path>
</symbol>
<symbol id="decoration-icon" viewBox="0 0 223 32">
<path fill="#d41443" style="fill: var(--color1, #d41443)" d="M127.127 15.936c0 8.8-7.371 15.934-16.463 15.934s-16.463-7.134-16.463-15.934c0-8.8 7.371-15.934 16.463-15.934s16.463 7.134 16.463 15.934z"></path>
<path fill="#d41443" style="fill: var(--color1, #d41443)" d="M222.119 16.443c0 4.734-4.039 8.571-9.021 8.571s-9.021-3.838-9.021-8.571c0-4.734 4.039-8.571 9.021-8.571s9.021 3.838 9.021 8.571z"></path>
<path fill="#d41443" style="fill: var(--color1, #d41443)" d="M18.041 16.443c0 4.734-4.039 8.571-9.021 8.571s-9.021-3.838-9.021-8.571c0-4.734 4.039-8.571 9.021-8.571s9.021 3.838 9.021 8.571z"></path>
<path fill="#d41443" style="fill: var(--color1, #d41443)" d="M178.145 15.871c0 6.312-5.553 11.429-12.402 11.429s-12.402-5.117-12.402-11.429c0-6.312 5.553-11.429 12.402-11.429s12.402 5.117 12.402 11.429z"></path>
<path fill="#d41443" style="fill: var(--color1, #d41443)" d="M68.777 15.871c0 6.312-5.553 11.429-12.402 11.429s-12.402-5.117-12.402-11.429c0-6.312 5.553-11.429 12.402-11.429s12.402 5.117 12.402 11.429z"></path>
</symbol>
<symbol id="franchise-icon-check" viewBox="0 0 28 32">
<path fill="#d41443" style="fill: var(--color1, #d41443)" d="M3.759 0h19.924c2.080 0 3.767 1.686 3.767 3.767v24.484c0 2.080-1.686 3.767-3.767 3.767h-19.924c-2.080 0-3.767-1.686-3.767-3.767v-24.484c0-2.080 1.686-3.767 3.767-3.767z"></path>
<path fill="#fff" style="fill: var(--color2, #fff); stroke: var(--color2, #fff)" stroke="#fff" stroke-linejoin="miter" stroke-linecap="butt" stroke-miterlimit="4" stroke-width="0.3765" d="M11.14 21.719l-4.475-5.311-0.143 0.169-1.627 1.917 0.102 0.122 6.144 7.289 0.143-0.169 12.982-15.402-0.104-0.122-1.512-1.795-0.145-0.169-0.143 0.169-11.221 13.302z"></path>
</symbol>
<symbol id="button-vector-white" viewBox="0 0 19 32">
<path fill="none" stroke="#fff" style="stroke: var(--color1, #fff)" stroke-linejoin="round" stroke-linecap="round" stroke-miterlimit="4" stroke-width="5.3333" d="M2.83 3.032l12.973 11.88-12.973 11.877"></path>
</symbol>
</defs>
</svg>